<svg width="100%" height="100%" viewBox="0 0 520 520" version="1.1" xmlns="http://www.w3.org/2000/svg" xmlns:xlink="http://www.w3.org/1999/xlink" xml:space="preserve" xmlns:serif="http://www.serif.com/" style="fill-rule:evenodd;clip-rule:evenodd;stroke-linejoin:round;stroke-miterlimit:2;">
  <rect id="Artboard1" x="-0" y="-0" width="519.001" height="519.001" style="fill:none;" />
  <clipPath id="_clip1">
    <rect x="-0" y="-0" width="519.001" height="519.001" />
  </clipPath>
  <g clip-path="url(#_clip1)">
    <path d="M222.494,15.329l-207.164,207.163c-20.44,20.44 -20.44,53.577 -0,74.015l207.164,207.164c20.438,20.44 53.575,20.44 74.014,-0l207.163,-207.164c20.44,-20.438 20.44,-53.576 0,-74.015l-207.163,-207.163c-10.219,-10.219 -23.613,-15.329 -37.007,-15.329c-13.394,-0 -26.788,5.11 -37.007,15.329Z" style="fill:url(#_Linear2);fill-rule:nonzero;" />
    <path d="M244.086,250.371l110.365,-0l-0,121.169c-5.917,4.631 -12.413,8.554 -19.488,11.77c-7.074,3.215 -14.535,5.917 -22.381,8.103c-7.847,2.187 -15.886,3.795 -24.118,4.824c-8.233,1.029 -16.336,1.543 -24.311,1.543c-18.523,0 -35.824,-2.701 -51.902,-8.103c-16.079,-5.403 -30.1,-13.828 -42.062,-25.276c-11.963,-11.448 -21.353,-26.048 -28.17,-43.798c-6.818,-17.751 -10.226,-38.847 -10.226,-63.286c-0,-25.469 4.116,-47.143 12.348,-65.023c8.232,-17.879 18.973,-32.414 32.222,-43.605c13.249,-11.191 28.041,-19.295 44.377,-24.311c16.336,-5.017 32.608,-7.525 48.815,-7.525c16.722,-0 31.45,1.222 44.184,3.666c12.735,2.444 22.704,4.824 29.907,7.139l-11.963,47.464c-6.946,-2.315 -14.792,-4.245 -23.539,-5.788c-8.747,-1.544 -19.68,-2.315 -32.801,-2.315c-12.091,-0 -23.153,1.607 -33.186,4.823c-10.033,3.216 -18.78,8.425 -26.24,15.629c-7.461,7.203 -13.249,16.593 -17.366,28.17c-4.116,11.576 -6.174,25.597 -6.174,42.062c0,15.95 2.058,29.584 6.174,40.904c4.117,11.319 9.712,20.645 16.787,27.977c7.074,7.332 15.242,12.67 24.504,16.014c9.261,3.345 19.037,5.017 29.327,5.017c6.946,-0 13.957,-0.772 21.031,-2.316c7.075,-1.543 13.056,-3.987 17.944,-7.331l0,-46.693l-64.058,-6.174l0,-34.73Z" style="fill:#fff;fill-rule:nonzero;" />
  </g>
  <defs>
    <linearGradient id="_Linear2" x1="0" y1="0" x2="1" y2="0" gradientUnits="userSpaceOnUse" gradientTransform="matrix(281.178,281.178,-281.178,281.178,118.912,118.911)">
      <stop offset="0" style="stop-color:#335cff;stop-opacity:1" />
      <stop offset="1" style="stop-color:#03f;stop-opacity:1" />
    </linearGradient>
  </defs>
</svg>